# xmcd
#
# Track frame offsets:
# 150
# 11058
# 19941
# 29526
# 33981
# 45132
#
# Disc length: 723 seconds
#
#
# Revision: 0
# Processed by: cddbd v1.5.2PL0 Copyright (c) Steve Scherf et al.
# Submitted via: FreeRIP 2.90 
#
DISCID=3d02d106
DTITLE=Raul Seixas - O Baú Do Raul Revirado
DYEAR=2005
DGENRE=Rock
TTITLE0=Diálogo entre Raulzito e Dudu - Tutti Frutti
TTITLE1=Eu Sou Egoísta - Gravação caseira
TTITLE2=Angel - Gravação Caseira
TTITLE3=Brazilian Rock - Gravado ao vivo teatro Pixinguinha
TTITLE4=Manifesto Sociedade Alternativa - Gravado ao vivo teatro Pixinguinha
TTITLE5=Lena - Gravação caseira
EXTD=
EXTT0=
EXTT1=
EXTT2=
EXTT3=
EXTT4=
EXTT5=
PLAYORDER=
